<svg width="147" height="25" viewBox="0 0 147 25" fill="none" xmlns="http://www.w3.org/2000/svg">
<path d="M12.376 24.32C10.6693 24.32 9.08 24.0427 7.608 23.488C6.15733 22.912 4.888 22.112 3.8 21.088C2.73333 20.0427 1.90133 18.816 1.304 17.408C0.706667 16 0.408 14.464 0.408 12.8C0.408 11.136 0.706667 9.6 1.304 8.192C1.90133 6.784 2.744 5.568 3.832 4.544C4.92 3.49867 6.18933 2.69867 7.64 2.144C9.09067 1.568 10.68 1.28 12.408 1.28C14.2427 1.28 15.9173 1.6 17.432 2.24C18.9467 2.85867 20.2267 3.78667 21.272 5.024L18.584 7.552C17.7733 6.67733 16.8667 6.02667 15.864 5.6C14.8613 5.152 13.7733 4.928 12.6 4.928C11.4267 4.928 10.3493 5.12 9.368 5.504C8.408 5.888 7.56533 6.432 6.84 7.136C6.136 7.84 5.58133 8.672 5.176 9.632C4.792 10.592 4.6 11.648 4.6 12.8C4.6 13.952 4.792 15.008 5.176 15.968C5.58133 16.928 6.136 17.76 6.84 18.464C7.56533 19.168 8.408 19.712 9.368 20.096C10.3493 20.48 11.4267 20.672 12.6 20.672C13.7733 20.672 14.8613 20.4587 15.864 20.032C16.8667 19.584 17.7733 18.912 18.584 18.016L21.272 20.576C20.2267 21.792 18.9467 22.72 17.432 23.36C15.9173 24 14.232 24.32 12.376 24.32ZM31.929 24.224C30.1797 24.224 28.6223 23.8507 27.257 23.104C25.8917 22.336 24.8143 21.2907 24.025 19.968C23.2357 18.6453 22.841 17.1413 22.841 15.456C22.841 13.7493 23.2357 12.2453 24.025 10.944C24.8143 9.62133 25.8917 8.58667 27.257 7.84C28.6223 7.09333 30.1797 6.72 31.929 6.72C33.6997 6.72 35.2677 7.09333 36.633 7.84C38.0197 8.58667 39.097 9.61067 39.865 10.912C40.6543 12.2133 41.049 13.728 41.049 15.456C41.049 17.1413 40.6543 18.6453 39.865 19.968C39.097 21.2907 38.0197 22.336 36.633 23.104C35.2677 23.8507 33.6997 24.224 31.929 24.224ZM31.929 20.8C32.9103 20.8 33.785 20.5867 34.553 20.16C35.321 19.7333 35.9183 19.1147 36.345 18.304C36.793 17.4933 37.017 16.544 37.017 15.456C37.017 14.3467 36.793 13.3973 36.345 12.608C35.9183 11.7973 35.321 11.1787 34.553 10.752C33.785 10.3253 32.921 10.112 31.961 10.112C30.9797 10.112 30.105 10.3253 29.337 10.752C28.5903 11.1787 27.993 11.7973 27.545 12.608C27.097 13.3973 26.873 14.3467 26.873 15.456C26.873 16.544 27.097 17.4933 27.545 18.304C27.993 19.1147 28.5903 19.7333 29.337 20.16C30.105 20.5867 30.969 20.8 31.929 20.8ZM52.106 24.224C50.4633 24.224 48.9807 23.8613 47.658 23.136C46.3567 22.3893 45.3327 21.3653 44.586 20.064C43.8393 18.7627 43.466 17.2267 43.466 15.456C43.466 13.6853 43.8393 12.1493 44.586 10.848C45.3327 9.54667 46.3567 8.53333 47.658 7.808C48.9807 7.08267 50.4633 6.72 52.106 6.72C53.5353 6.72 54.8153 7.04 55.946 7.68C57.0767 8.29867 57.9727 9.248 58.634 10.528C59.2953 11.808 59.626 13.4507 59.626 15.456C59.626 17.44 59.306 19.0827 58.666 20.384C58.026 21.664 57.1407 22.624 56.01 23.264C54.8793 23.904 53.578 24.224 52.106 24.224ZM52.586 20.8C53.546 20.8 54.3993 20.5867 55.146 20.16C55.914 19.7333 56.522 19.1147 56.97 18.304C57.4393 17.4933 57.674 16.544 57.674 15.456C57.674 14.3467 57.4393 13.3973 56.97 12.608C56.522 11.7973 55.914 11.1787 55.146 10.752C54.3993 10.3253 53.546 10.112 52.586 10.112C51.626 10.112 50.762 10.3253 49.994 10.752C49.2473 11.1787 48.6393 11.7973 48.17 12.608C47.722 13.3973 47.498 14.3467 47.498 15.456C47.498 16.544 47.722 17.4933 48.17 18.304C48.6393 19.1147 49.2473 19.7333 49.994 20.16C50.762 20.5867 51.626 20.8 52.586 20.8ZM57.77 24V19.968L57.93 15.424L57.61 10.88V0.255999H61.578V24H57.77ZM74.8748 24.224C72.9761 24.224 71.3121 23.8507 69.8828 23.104C68.4748 22.336 67.3761 21.2907 66.5868 19.968C65.8188 18.6453 65.4348 17.1413 65.4348 15.456C65.4348 13.7493 65.8081 12.2453 66.5548 10.944C67.3228 9.62133 68.3681 8.58667 69.6908 7.84C71.0348 7.09333 72.5601 6.72 74.2668 6.72C75.9308 6.72 77.4134 7.08267 78.7148 7.808C80.0161 8.53333 81.0401 9.55733 81.7868 10.88C82.5334 12.2027 82.9068 13.76 82.9068 15.552C82.9068 15.7227 82.8961 15.9147 82.8748 16.128C82.8748 16.3413 82.8641 16.544 82.8428 16.736H68.6028V14.08H80.7308L79.1628 14.912C79.1841 13.9307 78.9814 13.0667 78.5548 12.32C78.1281 11.5733 77.5414 10.9867 76.7948 10.56C76.0694 10.1333 75.2268 9.92 74.2668 9.92C73.2854 9.92 72.4214 10.1333 71.6748 10.56C70.9494 10.9867 70.3734 11.584 69.9468 12.352C69.5414 13.0987 69.3388 13.984 69.3388 15.008V15.648C69.3388 16.672 69.5734 17.5787 70.0428 18.368C70.5121 19.1573 71.1734 19.7653 72.0268 20.192C72.8801 20.6187 73.8614 20.832 74.9708 20.832C75.9308 20.832 76.7948 20.6827 77.5628 20.384C78.3308 20.0853 79.0134 19.616 79.6108 18.976L81.7548 21.44C80.9868 22.336 80.0161 23.0293 78.8428 23.52C77.6908 23.9893 76.3681 24.224 74.8748 24.224Z" fill="#086F6C"/>
<path d="M87.133 24V1.6H97.629C100.317 1.6 102.365 2.13333 103.773 3.2C105.181 4.24533 105.885 5.65333 105.885 7.424C105.885 8.61867 105.608 9.64267 105.053 10.496C104.498 11.328 103.752 11.9787 102.813 12.448C101.896 12.896 100.893 13.12 99.805 13.12L100.381 11.968C101.64 11.968 102.77 12.2027 103.773 12.672C104.776 13.12 105.565 13.7813 106.141 14.656C106.738 15.5307 107.037 16.6187 107.037 17.92C107.037 19.84 106.301 21.3333 104.829 22.4C103.357 23.4667 101.17 24 98.269 24H87.133ZM91.293 20.736H98.013C99.5703 20.736 100.765 20.48 101.597 19.968C102.429 19.456 102.845 18.6347 102.845 17.504C102.845 16.3947 102.429 15.584 101.597 15.072C100.765 14.5387 99.5703 14.272 98.013 14.272H90.973V11.04H97.181C98.6317 11.04 99.741 10.784 100.509 10.272C101.298 9.76 101.693 8.992 101.693 7.968C101.693 6.92267 101.298 6.144 100.509 5.632C99.741 5.12 98.6317 4.864 97.181 4.864H91.293V20.736ZM118.773 24.224C117.023 24.224 115.466 23.8507 114.101 23.104C112.735 22.336 111.658 21.2907 110.869 19.968C110.079 18.6453 109.685 17.1413 109.685 15.456C109.685 13.7493 110.079 12.2453 110.869 10.944C111.658 9.62133 112.735 8.58667 114.101 7.84C115.466 7.09333 117.023 6.72 118.773 6.72C120.543 6.72 122.111 7.09333 123.477 7.84C124.863 8.58667 125.941 9.61067 126.709 10.912C127.498 12.2133 127.893 13.728 127.893 15.456C127.893 17.1413 127.498 18.6453 126.709 19.968C125.941 21.2907 124.863 22.336 123.477 23.104C122.111 23.8507 120.543 24.224 118.773 24.224ZM118.773 20.8C119.754 20.8 120.629 20.5867 121.397 20.16C122.165 19.7333 122.762 19.1147 123.189 18.304C123.637 17.4933 123.861 16.544 123.861 15.456C123.861 14.3467 123.637 13.3973 123.189 12.608C122.762 11.7973 122.165 11.1787 121.397 10.752C120.629 10.3253 119.765 10.112 118.805 10.112C117.823 10.112 116.949 10.3253 116.181 10.752C115.434 11.1787 114.837 11.7973 114.389 12.608C113.941 13.3973 113.717 14.3467 113.717 15.456C113.717 16.544 113.941 17.4933 114.389 18.304C114.837 19.1147 115.434 19.7333 116.181 20.16C116.949 20.5867 117.813 20.8 118.773 20.8ZM128.819 24L136.339 14.208L136.275 16.352L129.107 6.912H133.555L138.579 13.632H136.883L141.939 6.912H146.259L139.027 16.352L139.059 14.208L146.547 24H142.035L136.755 16.864L138.419 17.088L133.235 24H128.819Z" fill="#FFAD0F"/>
</svg>
